<?xml version="1.0" encoding="UTF-8" standalone="no"?>
<!-- Created with Inkscape (http://www.inkscape.org/) -->

<svg
   width="210mm"
   height="297mm"
   viewBox="0 0 210 297"
   version="1.1"
   id="svg19735"
   inkscape:version="1.2.2 (b0a8486541, 2022-12-01)"
   sodipodi:docname="non_crossing_path_example_end.svg"
   xmlns:inkscape="http://www.inkscape.org/namespaces/inkscape"
   xmlns:sodipodi="http://sodipodi.sourceforge.net/DTD/sodipodi-0.dtd"
   xmlns="http://www.w3.org/2000/svg"
   xmlns:svg="http://www.w3.org/2000/svg">
  <sodipodi:namedview
     id="namedview19737"
     pagecolor="#ffffff"
     bordercolor="#000000"
     borderopacity="0.25"
     inkscape:showpageshadow="2"
     inkscape:pageopacity="0.0"
     inkscape:pagecheckerboard="0"
     inkscape:deskcolor="#d1d1d1"
     inkscape:document-units="mm"
     showgrid="false"
     inkscape:zoom="17.557358"
     inkscape:cx="190.83167"
     inkscape:cy="262.05537"
     inkscape:window-width="1920"
     inkscape:window-height="1041"
     inkscape:window-x="0"
     inkscape:window-y="0"
     inkscape:window-maximized="1"
     inkscape:current-layer="layer1" />
  <defs
     id="defs19732">
    <inkscape:path-effect
       effect="spiro"
       id="path-effect20316"
       is_visible="true"
       lpeversion="1" />
    <inkscape:path-effect
       effect="spiro"
       id="path-effect20260"
       is_visible="true"
       lpeversion="1" />
    <inkscape:path-effect
       effect="spiro"
       id="path-effect20206"
       is_visible="true"
       lpeversion="1" />
    <inkscape:path-effect
       effect="spiro"
       id="path-effect3923"
       is_visible="true"
       lpeversion="1" />
    <inkscape:path-effect
       effect="spiro"
       id="path-effect20206-3"
       is_visible="true"
       lpeversion="1" />
  </defs>
  <g
     inkscape:label="Layer 1"
     inkscape:groupmode="layer"
     id="layer1">
    <path
       style="fill:none;stroke:#819d43;stroke-width:0.0499999;stroke-dasharray:none"
       d="m 58.635265,61.754536 13.244054,7.550091"
       id="path2774"
       sodipodi:nodetypes="cc" />
    <path
       style="fill:none;stroke:#848484;stroke-width:0.039;stroke-dasharray:0.039, 0.312;stroke-dashoffset:0;stroke-opacity:1"
       d="M 73.400149,69.308431 H 43.461059"
       id="path57903" />
    <path
       style="fill:none;stroke:#819d43;stroke-width:0.0499999;stroke-dasharray:none"
       d="M 58.638434,76.854722 71.909769,69.325994"
       id="path2778"
       sodipodi:nodetypes="cc" />
    <path
       style="fill:none;stroke:#819d43;stroke-width:0.0499999;stroke-dasharray:none"
       d="m 58.654828,69.304627 13.224491,-10e-7"
       id="path2776"
       sodipodi:nodetypes="cc" />
    <circle
       style="fill:none;stroke:#a2a2a2;stroke-width:0.183;stroke-dasharray:0.549, 0.183;stroke-dashoffset:0;stroke-opacity:1"
       id="path1939"
       cx="58.65477"
       cy="69.304634"
       r="13.224554" />
    <path
       style="fill:none;stroke:#848484;stroke-width:0.039;stroke-dasharray:0.039, 0.312;stroke-dashoffset:0;stroke-opacity:1"
       d="M 58.654765,54.752472 V 84.370376"
       id="path57899" />
    <circle
       style="fill:#979797;fill-opacity:1;stroke:#000000;stroke-width:0.487347;stroke-dasharray:none"
       id="path1941"
       cx="58.638435"
       cy="61.754536"
       r="0.45766878" />
    <circle
       style="fill:#979797;fill-opacity:1;stroke:#000000;stroke-width:0.487347;stroke-dasharray:none"
       id="circle57944-3"
       cx="58.638435"
       cy="76.854729"
       r="0.45766878" />
    <circle
       style="fill:#979797;fill-opacity:1;stroke:#000000;stroke-width:0.487347;stroke-dasharray:none"
       id="circle57944"
       cx="58.638435"
       cy="69.304634"
       r="0.45766878" />
    <path
       style="fill:none;stroke:#000000;stroke-width:0.150001"
       d="m 45.430216,69.304634 c 2.41317,-4.030173 5.945188,-7.382532 10.095742,-9.582211 1.157229,-0.6133 2.396334,-1.147354 3.704682,-1.206875 1.608511,-0.07318 3.199832,0.59773 4.414292,1.654968 0.984742,0.857259 1.74424,1.961708 2.243707,3.168 0.499467,1.206293 0.742353,2.512511 0.765635,3.81791 0.04657,2.610798 -0.775726,5.176152 -1.958288,7.504237 -0.442782,0.871695 -0.939505,1.721342 -1.559835,2.477053 -0.620329,0.75571 -1.369499,1.417453 -2.242889,1.856881 -0.87339,0.439428 -1.876406,0.64774 -2.842963,0.500519 -0.966557,-0.147221 -1.887977,-0.667916 -2.441935,-1.473545 -0.479785,-0.697759 -0.665715,-1.588083 -0.518928,-2.422059 0.146787,-0.833975 0.621524,-1.603267 1.2927,-2.119585 0.654204,-0.503261 1.459078,-0.758707 2.232093,-1.048023 0.773014,-0.289316 1.559591,-0.64235 2.088813,-1.275737 0.36888,-0.441485 0.588746,-0.998905 0.656936,-1.57016 0.06819,-0.571255 -0.01148,-1.155434 -0.195276,-1.700594 -0.367597,-1.090322 -1.132279,-2.002612 -1.968337,-2.79314 -0.679625,-0.642614 -1.438639,-1.252113 -1.829195,-2.102001 -0.195278,-0.424944 -0.28811,-0.906119 -0.203149,-1.366001 0.04248,-0.229942 0.129204,-0.452434 0.260257,-0.64609 0.131054,-0.193656 0.306855,-0.35794 0.512815,-0.468657 0.220957,-0.118779 0.474059,-0.174389 0.72486,-0.168948 0.250801,0.0054 0.49904,0.07103 0.72432,0.181391 0.450562,0.220718 0.800499,0.614464 1.037047,1.05692 0.473095,0.884913 0.512326,1.927606 0.72704,2.907803 0.268591,1.22615 0.820241,2.376053 1.091917,3.601523 0.135839,0.612735 0.200471,1.247108 0.119629,1.869491 -0.08084,0.622384 -0.313626,1.233872 -0.722197,1.710281 -0.296592,0.345837 -0.677168,0.612194 -1.08222,0.820767 -0.405052,0.208573 -0.835909,0.361933 -1.267403,0.508161 -0.862988,0.292454 -1.764767,0.576035 -2.436433,1.191781 -0.454729,0.41687 -0.780472,0.977756 -0.893504,1.584207 -0.113033,0.606451 -0.0081,1.255211 0.311005,1.78317 0.387537,0.641209 1.074133,1.076251 1.808691,1.223753 0.734559,0.147502 1.509571,0.02195 2.193841,-0.28319 0.68427,-0.305136 1.282081,-0.782798 1.790065,-1.333511 0.507985,-0.550714 0.930324,-1.174601 1.322027,-1.813274 1.288239,-2.100479 2.276226,-4.431104 2.514721,-6.883591 0.238495,-2.452487 -0.329581,-5.039603 -1.87077,-6.962182 -0.938348,-1.170556 -2.268712,-2.085745 -3.75801,-2.266551 -1.427681,-0.173325 -2.848929,0.329172 -4.154635,0.932037 -4.30874,1.989413 -8.051166,5.188417 -10.686869,9.13507"
       id="path20312"
       inkscape:path-effect="#path-effect20316"
       inkscape:original-d="m 45.430216,69.304634 c 5.153698,-4.41111 -46.42521191,130.122136 10.095742,-9.582211 2.54416,-6.288468 -0.904487,1.15773 3.704682,-1.206875 1.087901,-0.558117 4.462987,0.681401 4.414292,1.654968 -0.25276,5.053455 1.029242,6.623308 1.051054,14.490147 0.02178,7.866837 -6.733798,3.488296 -9.087622,3.360908 -2.353821,-0.127387 0.76693,-2.763297 0.773772,-4.541644 0.0069,-1.778346 2.512757,-1.479184 4.320906,-2.32376 1.808153,-0.844569 -1.757488,-3.266876 -1.506677,-6.063894 0.250813,-2.797017 -2.668918,-3.859835 -1.259272,-4.582749 1.516542,-0.777734 3.402079,1.903333 3.213267,3.977166 -0.188812,2.073834 1.850535,6.555093 0.489349,7.181295 -1.361183,0.626206 -4.780856,1.202164 -4.786056,2.520709 -0.0052,1.318546 -2.354467,3.272927 -0.582499,3.367377 1.77197,0.09445 7.131024,3.626602 7.114624,-2.206222 -0.01642,-5.832824 1.059183,-13.249859 0.643951,-13.845773 -0.415229,-0.595915 -2.840792,-2.342611 -3.75801,-2.266551 -0.917217,0.07606 -0.275434,-2.339086 -4.154635,0.932037 -3.8792,3.271126 -6.807141,5.864476 -10.686869,9.13507"
       sodipodi:nodetypes="cssscscssasscscsssc" />
    <circle
       style="fill:#979797;fill-opacity:1;stroke:#000000;stroke-width:0.487347;stroke-dasharray:none"
       id="circle57950"
       cx="45.427597"
       cy="69.351768"
       r="0.45766878" />
  </g>
</svg>
